<svg xmlns="http://www.w3.org/2000/svg" xmlns:xlink="http://www.w3.org/1999/xlink" width="500" zoomAndPan="magnify" viewBox="0 0 375 374.999991" height="500" preserveAspectRatio="xMidYMid meet" version="1.0"><defs><g/><clipPath id="8a8adf72e4"><path d="M 97 119 L 293 119 L 293 284 L 97 284 Z M 97 119 " clip-rule="nonzero"/></clipPath><clipPath id="753b400cc2"><path d="M 123.675781 84.523438 L 295.839844 122.253906 L 258.105469 294.417969 L 85.941406 256.6875 Z M 123.675781 84.523438 " clip-rule="nonzero"/></clipPath><clipPath id="bbcd0caac8"><path d="M 123.675781 84.523438 L 295.839844 122.253906 L 258.105469 294.417969 L 85.941406 256.6875 Z M 123.675781 84.523438 " clip-rule="nonzero"/></clipPath><clipPath id="5979613875"><path d="M 49 105 L 359 105 L 359 361 L 49 361 Z M 49 105 " clip-rule="nonzero"/></clipPath><clipPath id="ce6e9afed2"><path d="M 431.300781 257.855469 L 145.152344 438.222656 L 48.371094 284.679688 L 334.519531 104.3125 Z M 431.300781 257.855469 " clip-rule="nonzero"/></clipPath><clipPath id="15a31435d5"><path d="M 431.300781 257.855469 L 145.152344 438.222656 L 48.371094 284.679688 L 334.519531 104.3125 Z M 431.300781 257.855469 " clip-rule="nonzero"/></clipPath></defs><g fill="#ffffff" fill-opacity="1"><g transform="translate(28.819558, 200.058779)"><g><path d="M -21.21875 -18.234375 L -15.453125 -19.0625 L -15.265625 -17.5 L -19.265625 -15.96875 C -19.304688 -15.78125 -19.332031 -15.5625 -19.34375 -15.3125 C -19.363281 -15.0625 -19.367188 -14.84375 -19.359375 -14.65625 L -19.359375 -13.375 C -19.347656 -13.132812 -19.34375 -12.8125 -19.34375 -12.40625 C -19.34375 -12 -19.320312 -11.632812 -19.28125 -11.3125 C -19.09375 -11.3125 -18.648438 -11.304688 -17.953125 -11.296875 C -17.253906 -11.285156 -16.441406 -11.285156 -15.515625 -11.296875 C -14.585938 -11.304688 -13.695312 -11.316406 -12.84375 -11.328125 L -8.046875 -11.375 C -6.546875 -11.382812 -5.242188 -11.40625 -4.140625 -11.4375 C -3.046875 -11.476562 -2.316406 -11.503906 -1.953125 -11.515625 L -1.5625 -14.53125 L -0.140625 -14.453125 L -0.046875 -5.375 L -1.46875 -5.28125 L -1.921875 -8.28125 C -2.285156 -8.269531 -3.015625 -8.269531 -4.109375 -8.28125 C -5.210938 -8.289062 -6.515625 -8.289062 -8.015625 -8.28125 L -12.8125 -8.234375 C -13.664062 -8.222656 -14.554688 -8.210938 -15.484375 -8.203125 C -16.410156 -8.191406 -17.222656 -8.179688 -17.921875 -8.171875 C -18.617188 -8.171875 -19.0625 -8.160156 -19.25 -8.140625 C -19.28125 -7.828125 -19.289062 -7.46875 -19.28125 -7.0625 C -19.28125 -6.664062 -19.28125 -6.347656 -19.28125 -6.109375 L -19.265625 -4.71875 C -19.265625 -4.53125 -19.253906 -4.320312 -19.234375 -4.09375 C -19.222656 -3.875 -19.191406 -3.65625 -19.140625 -3.4375 L -15.0625 -2.015625 L -15.265625 -0.40625 L -21.046875 -1.15625 C -21.023438 -1.414062 -21.007812 -1.691406 -21 -1.984375 C -20.988281 -2.285156 -20.972656 -2.582031 -20.953125 -2.875 C -20.929688 -3.164062 -20.921875 -3.453125 -20.921875 -3.734375 C -20.929688 -4.023438 -20.9375 -4.3125 -20.9375 -4.59375 L -21.046875 -14.78125 C -21.046875 -15.039062 -21.046875 -15.316406 -21.046875 -15.609375 C -21.046875 -15.910156 -21.054688 -16.203125 -21.078125 -16.484375 C -21.109375 -16.765625 -21.128906 -17.050781 -21.140625 -17.34375 C -21.160156 -17.644531 -21.1875 -17.941406 -21.21875 -18.234375 Z M -21.21875 -18.234375 "/></g></g></g><g fill="#ffffff" fill-opacity="1"><g transform="translate(29.336543, 171.231433)"><g><path d="M 0.3125 -1.8125 L -1.03125 -1.984375 L -1.1875 -4.21875 C -1.351562 -4.25 -1.601562 -4.296875 -1.9375 -4.359375 C -2.269531 -4.429688 -2.671875 -4.503906 -3.140625 -4.578125 C -3.609375 -4.660156 -4.113281 -4.753906 -4.65625 -4.859375 C -5.207031 -4.972656 -5.75 -5.078125 -6.28125 -5.171875 L -12.875 -6.3125 C -13.945312 -6.5 -14.851562 -6.648438 -15.59375 -6.765625 C -16.332031 -6.890625 -16.90625 -6.976562 -17.3125 -7.03125 C -17.726562 -7.082031 -17.984375 -7.097656 -18.078125 -7.078125 L -18.953125 -5 L -20.265625 -5.328125 L -18.9375 -13.015625 C -18.550781 -15.210938 -17.832031 -16.8125 -16.78125 -17.8125 C -15.726562 -18.820312 -14.367188 -19.179688 -12.703125 -18.890625 C -11.554688 -18.691406 -10.585938 -18.195312 -9.796875 -17.40625 C -9.015625 -16.625 -8.460938 -15.617188 -8.140625 -14.390625 C -7.828125 -13.171875 -7.800781 -11.84375 -8.0625 -10.40625 L -8.453125 -8.15625 L -10.015625 -8.421875 L -9.65625 -10.421875 C -9.40625 -11.867188 -9.570312 -13.054688 -10.15625 -13.984375 C -10.738281 -14.910156 -11.675781 -15.488281 -12.96875 -15.71875 C -14.207031 -15.9375 -15.210938 -15.75 -15.984375 -15.15625 C -16.753906 -14.570312 -17.253906 -13.625 -17.484375 -12.3125 L -17.828125 -10.28125 C -17.785156 -10.25 -17.691406 -10.21875 -17.546875 -10.1875 C -17.410156 -10.15625 -17.175781 -10.109375 -16.84375 -10.046875 C -16.519531 -9.992188 -16.039062 -9.910156 -15.40625 -9.796875 C -14.78125 -9.691406 -13.9375 -9.546875 -12.875 -9.359375 L -5.765625 -8.125 C -4.765625 -7.945312 -3.925781 -7.800781 -3.25 -7.6875 C -2.570312 -7.582031 -2.019531 -7.515625 -1.59375 -7.484375 C -1.175781 -7.453125 -0.851562 -7.425781 -0.625 -7.40625 L 0.25 -9.375 L 1.578125 -9.046875 Z M 3.578125 -18.375 C 3.390625 -17.351562 3.035156 -16.476562 2.515625 -15.75 C 1.992188 -15.019531 1.207031 -14.363281 0.15625 -13.78125 C -0.882812 -13.195312 -2.238281 -12.597656 -3.90625 -11.984375 L -8.65625 -10.359375 L -8.8125 -13.09375 L -2.578125 -15.921875 C -1.503906 -16.398438 -0.632812 -16.851562 0.03125 -17.28125 C 0.695312 -17.707031 1.210938 -18.148438 1.578125 -18.609375 C 1.953125 -19.078125 2.25 -19.601562 2.46875 -20.1875 L 3.703125 -19.953125 C 3.703125 -19.703125 3.691406 -19.441406 3.671875 -19.171875 C 3.648438 -18.898438 3.617188 -18.632812 3.578125 -18.375 Z M 3.578125 -18.375 "/></g></g></g><g fill="#ffffff" fill-opacity="1"><g transform="translate(35.136116, 142.653791)"><g><path d="M 0.03125 -0.109375 L -1.25 -0.5 L -1.109375 -2.3125 L -15.8125 -15.625 L -16.265625 -18 L 4.890625 -18.375 L 5.984375 -19.859375 L 7.21875 -19.3125 L 4.703125 -12.578125 L 3.40625 -12.96875 L 3.703125 -15.171875 L -1.953125 -15.0625 L -3.140625 -15.078125 L -13.578125 -14.828125 L -13.71875 -15.765625 L -5.515625 -8.75 L -4.640625 -8 L -0.34375 -4.375 L 0.890625 -6.234375 L 2.125 -5.6875 Z M -4.375 -7.0625 L -6.15625 -7.734375 C -5.976562 -8.148438 -5.738281 -8.71875 -5.4375 -9.4375 C -5.132812 -10.15625 -4.785156 -11.050781 -4.390625 -12.125 C -3.992188 -13.164062 -3.671875 -14.0625 -3.421875 -14.8125 C -3.171875 -15.570312 -2.984375 -16.15625 -2.859375 -16.5625 L -1.078125 -15.890625 C -1.390625 -15.148438 -1.6875 -14.410156 -1.96875 -13.671875 C -2.257812 -12.929688 -2.535156 -12.21875 -2.796875 -11.53125 C -3.046875 -10.863281 -3.300781 -10.164062 -3.5625 -9.4375 C -3.820312 -8.707031 -4.09375 -7.914062 -4.375 -7.0625 Z M -4.375 -7.0625 "/></g></g></g><g fill="#ffffff" fill-opacity="1"><g transform="translate(46.299352, 115.159939)"><g><path d="M 5.078125 -8.15625 L -15.328125 -11.4375 L -16.6875 -10.15625 L -17.796875 -10.953125 L -13.984375 -17.25 L -12.78125 -16.609375 L -13.484375 -14.484375 L 2.96875 -11.6875 L 2.59375 -11.078125 L -7.703125 -24.015625 L -9.421875 -22.15625 L -10.546875 -22.9375 L -7.15625 -28.53125 L -5.9375 -27.90625 L -6.4375 -26.109375 L 5.84375 -9.4375 Z M 5.078125 -8.15625 "/></g></g></g><g fill="#ffffff" fill-opacity="1"><g transform="translate(62.482851, 90.133363)"><g><path d="M 11.640625 -12.796875 C 11.140625 -12.328125 10.703125 -11.898438 10.328125 -11.515625 C 9.953125 -11.128906 9.609375 -10.757812 9.296875 -10.40625 L 1.171875 -1.3125 L 0.078125 -2.125 L 1.1875 -4.109375 C 1.101562 -4.203125 0.910156 -4.398438 0.609375 -4.703125 C 0.304688 -5.003906 -0.109375 -5.398438 -0.640625 -5.890625 C -1.179688 -6.390625 -1.84375 -6.988281 -2.625 -7.6875 L -7.609375 -12.140625 C -8.410156 -12.847656 -9.09375 -13.445312 -9.65625 -13.9375 C -10.226562 -14.425781 -10.679688 -14.800781 -11.015625 -15.0625 C -11.347656 -15.332031 -11.554688 -15.492188 -11.640625 -15.546875 L -13.484375 -14.21875 L -14.40625 -15.21875 L -6.8125 -23.734375 C -6.582031 -23.984375 -6.34375 -24.242188 -6.09375 -24.515625 C -5.84375 -24.796875 -5.59375 -25.101562 -5.34375 -25.4375 C -5.101562 -25.78125 -4.835938 -26.125 -4.546875 -26.46875 L -0.578125 -23.890625 L -1.453125 -22.515625 L -4.46875 -23.640625 C -4.625 -23.523438 -4.78125 -23.382812 -4.9375 -23.21875 C -5.101562 -23.050781 -5.28125 -22.863281 -5.46875 -22.65625 L -8.140625 -19.671875 C -8.429688 -19.335938 -8.6875 -19.035156 -8.90625 -18.765625 C -9.132812 -18.503906 -9.347656 -18.234375 -9.546875 -17.953125 C -9.472656 -17.890625 -9.273438 -17.707031 -8.953125 -17.40625 C -8.628906 -17.101562 -8.257812 -16.757812 -7.84375 -16.375 C -7.425781 -15.988281 -7.003906 -15.601562 -6.578125 -15.21875 L 0.578125 -8.828125 C 0.929688 -8.515625 1.289062 -8.203125 1.65625 -7.890625 C 2.03125 -7.578125 2.359375 -7.300781 2.640625 -7.0625 C 2.921875 -6.820312 3.125 -6.644531 3.25 -6.53125 C 3.507812 -6.789062 3.765625 -7.039062 4.015625 -7.28125 C 4.265625 -7.53125 4.546875 -7.820312 4.859375 -8.15625 L 7.15625 -10.734375 C 7.5 -11.128906 7.773438 -11.453125 7.984375 -11.703125 C 8.203125 -11.960938 8.363281 -12.171875 8.46875 -12.328125 C 8.582031 -12.484375 8.671875 -12.609375 8.734375 -12.703125 L 7.4375 -16.359375 L 8.75 -17.328125 Z M 3.453125 -14.8125 L 1.359375 -16.109375 C 1.242188 -16.046875 1.082031 -15.914062 0.875 -15.71875 C 0.664062 -15.53125 0.425781 -15.285156 0.15625 -14.984375 L -1.640625 -12.96875 C -1.847656 -12.726562 -2.0625 -12.460938 -2.28125 -12.171875 C -2.507812 -11.890625 -2.75 -11.597656 -3 -11.296875 L -4.453125 -12.59375 C -4.171875 -12.863281 -3.90625 -13.128906 -3.65625 -13.390625 C -3.40625 -13.660156 -3.175781 -13.914062 -2.96875 -14.15625 L -1.171875 -16.171875 C -0.898438 -16.472656 -0.671875 -16.726562 -0.484375 -16.9375 C -0.304688 -17.15625 -0.195312 -17.332031 -0.15625 -17.46875 L -1.703125 -19.40625 L -0.6875 -20.546875 L 4.46875 -15.953125 Z M 3.453125 -14.8125 "/></g></g></g><g fill="#ffffff" fill-opacity="1"><g transform="translate(82.334414, 69.200886)"><g><path d="M 13.1875 -10.125 C 12.894531 -9.945312 12.578125 -9.738281 12.234375 -9.5 C 11.890625 -9.269531 11.554688 -9.035156 11.234375 -8.796875 C 10.910156 -8.554688 10.617188 -8.335938 10.359375 -8.140625 L 1.40625 -1.09375 L 0.5 -2.109375 L 1.90625 -3.84375 C 1.851562 -3.957031 1.707031 -4.179688 1.46875 -4.515625 C 1.226562 -4.859375 0.878906 -5.332031 0.421875 -5.9375 C -0.0351562 -6.539062 -0.582031 -7.242188 -1.21875 -8.046875 L -5.34375 -13.3125 C -6.007812 -14.15625 -6.566406 -14.863281 -7.015625 -15.4375 C -7.472656 -16.019531 -7.835938 -16.46875 -8.109375 -16.78125 C -8.390625 -17.101562 -8.582031 -17.285156 -8.6875 -17.328125 L -10.71875 -16.40625 L -11.5 -17.53125 L -4.9375 -22.703125 L -3.953125 -21.640625 L -6 -19.4375 C -6 -19.351562 -5.882812 -19.148438 -5.65625 -18.828125 C -5.425781 -18.515625 -5.09375 -18.054688 -4.65625 -17.453125 C -4.21875 -16.847656 -3.644531 -16.097656 -2.9375 -15.203125 L 1.1875 -9.9375 C 1.945312 -8.96875 2.617188 -8.128906 3.203125 -7.421875 C 3.796875 -6.722656 4.179688 -6.273438 4.359375 -6.078125 C 4.648438 -6.253906 4.929688 -6.445312 5.203125 -6.65625 C 5.484375 -6.863281 5.804688 -7.109375 6.171875 -7.390625 L 8.28125 -9.046875 C 8.707031 -9.390625 9.0625 -9.6875 9.34375 -9.9375 C 9.632812 -10.1875 9.910156 -10.445312 10.171875 -10.71875 L 9.484375 -14.59375 L 10.96875 -15.296875 Z M 13.1875 -10.125 "/></g></g></g><g fill="#ffffff" fill-opacity="1"><g transform="translate(104.693073, 52.97476)"><g/></g></g><g fill="#ffffff" fill-opacity="1"><g transform="translate(118.852856, 44.96763)"><g><path d="M 2.796875 -3.109375 C 2.785156 -3.285156 2.617188 -3.828125 2.296875 -4.734375 C 1.984375 -5.640625 1.5625 -6.75 1.03125 -8.0625 L -1.46875 -14.265625 C -2.0625 -15.722656 -2.550781 -16.875 -2.9375 -17.71875 C -3.332031 -18.570312 -3.582031 -19.050781 -3.6875 -19.15625 L -5.8125 -18.671875 L -6.28125 -20 L 1.578125 -23.171875 C 3.710938 -24.035156 5.5 -24.296875 6.9375 -23.953125 C 8.382812 -23.617188 9.410156 -22.691406 10.015625 -21.171875 C 10.515625 -19.953125 10.453125 -18.734375 9.828125 -17.515625 C 9.203125 -16.296875 8.164062 -15.332031 6.71875 -14.625 L 6.234375 -14.671875 C 8.367188 -15.460938 10.164062 -15.660156 11.625 -15.265625 C 13.082031 -14.878906 14.113281 -13.9375 14.71875 -12.4375 C 15.394531 -10.75 15.195312 -9.097656 14.125 -7.484375 C 13.0625 -5.867188 11.265625 -4.550781 8.734375 -3.53125 L 1.546875 -0.625 L 0.96875 -1.859375 Z M 4.109375 -8.453125 C 4.503906 -7.484375 4.867188 -6.613281 5.203125 -5.84375 C 5.535156 -5.070312 5.753906 -4.59375 5.859375 -4.40625 C 6.171875 -4.476562 6.578125 -4.582031 7.078125 -4.71875 C 7.585938 -4.851562 7.984375 -4.984375 8.265625 -5.109375 C 9.960938 -5.785156 11.109375 -6.601562 11.703125 -7.5625 C 12.296875 -8.519531 12.335938 -9.628906 11.828125 -10.890625 C 11.304688 -12.179688 10.46875 -12.972656 9.3125 -13.265625 C 8.164062 -13.554688 6.703125 -13.335938 4.921875 -12.609375 C 4.085938 -12.273438 3.507812 -12.046875 3.1875 -11.921875 C 2.875 -11.796875 2.609375 -11.65625 2.390625 -11.5 L 1.6875 -13.234375 C 2.113281 -13.367188 2.515625 -13.503906 2.890625 -13.640625 C 3.265625 -13.785156 3.675781 -13.945312 4.125 -14.125 C 5.570312 -14.71875 6.554688 -15.488281 7.078125 -16.4375 C 7.597656 -17.394531 7.625 -18.457031 7.15625 -19.625 C 6.695312 -20.757812 5.984375 -21.484375 5.015625 -21.796875 C 4.046875 -22.117188 2.875 -22.003906 1.5 -21.453125 L -0.703125 -20.5625 C -0.660156 -20.394531 -0.476562 -19.890625 -0.15625 -19.046875 C 0.164062 -18.210938 0.539062 -17.273438 0.96875 -16.234375 Z M 4.109375 -8.453125 "/></g></g></g><g fill="#ffffff" fill-opacity="1"><g transform="translate(146.045177, 34.928375)"><g><path d="M 16.296875 -3.25 C 15.960938 -3.21875 15.585938 -3.171875 15.171875 -3.109375 C 14.765625 -3.054688 14.363281 -2.992188 13.96875 -2.921875 C 13.570312 -2.847656 13.210938 -2.773438 12.890625 -2.703125 L 1.75 -0.359375 L 1.390625 -1.671875 L 3.421875 -2.59375 C 3.421875 -2.726562 3.390625 -3 3.328125 -3.40625 C 3.265625 -3.820312 3.160156 -4.398438 3.015625 -5.140625 C 2.867188 -5.878906 2.691406 -6.75 2.484375 -7.75 L 1.109375 -14.296875 C 0.890625 -15.347656 0.703125 -16.234375 0.546875 -16.953125 C 0.398438 -17.671875 0.269531 -18.234375 0.15625 -18.640625 C 0.0507812 -19.054688 -0.0351562 -19.304688 -0.109375 -19.390625 L -2.34375 -19.453125 L -2.546875 -20.796875 L 5.625 -22.515625 L 6.03125 -21.15625 L 3.234375 -20.09375 C 3.191406 -20.007812 3.203125 -19.773438 3.265625 -19.390625 C 3.328125 -19.003906 3.421875 -18.441406 3.546875 -17.703125 C 3.671875 -16.972656 3.851562 -16.046875 4.09375 -14.921875 L 5.46875 -8.375 C 5.71875 -7.175781 5.945312 -6.128906 6.15625 -5.234375 C 6.375 -4.347656 6.519531 -3.78125 6.59375 -3.53125 C 6.925781 -3.550781 7.265625 -3.59375 7.609375 -3.65625 C 7.953125 -3.71875 8.351562 -3.796875 8.8125 -3.890625 L 11.421875 -4.4375 C 11.960938 -4.550781 12.414062 -4.65625 12.78125 -4.75 C 13.15625 -4.851562 13.519531 -4.96875 13.875 -5.09375 L 14.953125 -8.890625 L 16.609375 -8.875 Z M 16.296875 -3.25 "/></g></g></g><g fill="#ffffff" fill-opacity="1"><g transform="translate(172.712993, 29.895205)"><g><path d="M 12.421875 0.109375 C 10.359375 0.140625 8.515625 -0.28125 6.890625 -1.15625 C 5.273438 -2.03125 4.003906 -3.265625 3.078125 -4.859375 C 2.148438 -6.453125 1.671875 -8.296875 1.640625 -10.390625 C 1.597656 -12.472656 2.019531 -14.335938 2.90625 -15.984375 C 3.800781 -17.640625 5.050781 -18.945312 6.65625 -19.90625 C 8.257812 -20.875 10.082031 -21.378906 12.125 -21.421875 C 14.125 -21.453125 15.890625 -21.03125 17.421875 -20.15625 C 18.953125 -19.28125 20.160156 -18.054688 21.046875 -16.484375 C 21.941406 -14.910156 22.40625 -13.082031 22.4375 -11 C 22.46875 -9.40625 22.222656 -7.9375 21.703125 -6.59375 C 21.179688 -5.257812 20.453125 -4.09375 19.515625 -3.09375 C 18.585938 -2.09375 17.515625 -1.316406 16.296875 -0.765625 C 15.085938 -0.210938 13.796875 0.078125 12.421875 0.109375 Z M 12.703125 -1.8125 C 14.015625 -1.832031 15.128906 -2.179688 16.046875 -2.859375 C 16.972656 -3.546875 17.679688 -4.503906 18.171875 -5.734375 C 18.660156 -6.972656 18.890625 -8.421875 18.859375 -10.078125 C 18.828125 -11.992188 18.503906 -13.671875 17.890625 -15.109375 C 17.285156 -16.546875 16.457031 -17.660156 15.40625 -18.453125 C 14.351562 -19.253906 13.128906 -19.644531 11.734375 -19.625 C 9.710938 -19.59375 8.128906 -18.8125 6.984375 -17.28125 C 5.835938 -15.757812 5.285156 -13.707031 5.328125 -11.125 C 5.359375 -9.269531 5.691406 -7.640625 6.328125 -6.234375 C 6.972656 -4.835938 7.847656 -3.742188 8.953125 -2.953125 C 10.054688 -2.171875 11.304688 -1.789062 12.703125 -1.8125 Z M 12.703125 -1.8125 "/></g></g></g><g fill="#ffffff" fill-opacity="1"><g transform="translate(205.873666, 30.246203)"><g><path d="M 12.125 2.671875 C 10.101562 2.285156 8.390625 1.492188 6.984375 0.296875 C 5.585938 -0.890625 4.597656 -2.359375 4.015625 -4.109375 C 3.441406 -5.867188 3.351562 -7.773438 3.75 -9.828125 C 4.144531 -11.867188 4.945312 -13.601562 6.15625 -15.03125 C 7.375 -16.457031 8.863281 -17.476562 10.625 -18.09375 C 12.394531 -18.707031 14.28125 -18.820312 16.28125 -18.4375 C 18.25 -18.050781 19.890625 -17.269531 21.203125 -16.09375 C 22.523438 -14.925781 23.457031 -13.476562 24 -11.75 C 24.550781 -10.03125 24.628906 -8.148438 24.234375 -6.109375 C 23.929688 -4.535156 23.382812 -3.148438 22.59375 -1.953125 C 21.8125 -0.753906 20.859375 0.234375 19.734375 1.015625 C 18.617188 1.796875 17.410156 2.332031 16.109375 2.625 C 14.804688 2.914062 13.476562 2.929688 12.125 2.671875 Z M 12.796875 0.859375 C 14.085938 1.109375 15.253906 0.992188 16.296875 0.515625 C 17.347656 0.0351562 18.238281 -0.75 18.96875 -1.84375 C 19.707031 -2.945312 20.234375 -4.316406 20.546875 -5.953125 C 20.910156 -7.828125 20.941406 -9.53125 20.640625 -11.0625 C 20.335938 -12.601562 19.753906 -13.875 18.890625 -14.875 C 18.023438 -15.875 16.910156 -16.503906 15.546875 -16.765625 C 13.554688 -17.148438 11.84375 -16.71875 10.40625 -15.46875 C 8.976562 -14.21875 8.015625 -12.320312 7.515625 -9.78125 C 7.160156 -7.957031 7.148438 -6.289062 7.484375 -4.78125 C 7.816406 -3.28125 8.441406 -2.03125 9.359375 -1.03125 C 10.285156 -0.03125 11.429688 0.597656 12.796875 0.859375 Z M 12.796875 0.859375 "/></g></g></g><g fill="#ffffff" fill-opacity="1"><g transform="translate(238.169621, 37.159285)"><g><path d="M 10.296875 -18.28125 L 15.921875 -15.796875 L 15.84375 2.8125 L 15.265625 2.5625 L 28.875 -10.046875 L 34.140625 -7.71875 L 33.671875 -6.4375 L 31.46875 -6.921875 C 31.320312 -6.617188 31.0625 -6.046875 30.6875 -5.203125 C 30.320312 -4.367188 29.945312 -3.46875 29.5625 -2.5 L 27.046875 3.515625 C 26.585938 4.597656 26.207031 5.507812 25.90625 6.25 C 25.613281 6.988281 25.378906 7.570312 25.203125 8 C 25.035156 8.4375 24.914062 8.78125 24.84375 9.03125 L 26.625 10.3125 L 26.03125 11.53125 L 19.125 8.484375 L 19.578125 7.1875 L 21.75 7.65625 C 21.882812 7.40625 22.03125 7.109375 22.1875 6.765625 C 22.34375 6.421875 22.554688 5.929688 22.828125 5.296875 C 23.109375 4.671875 23.476562 3.8125 23.9375 2.71875 L 29 -8.875 L 29.84375 -8.5 L 13.875 6.265625 L 12.734375 5.765625 L 12.78125 -16.09375 L 13.625 -15.71875 L 8.75 -4.640625 C 7.957031 -2.835938 7.382812 -1.523438 7.03125 -0.703125 C 6.675781 0.109375 6.46875 0.613281 6.40625 0.8125 L 8.421875 2.234375 L 7.765625 3.4375 L 1.40625 0.625 L 1.84375 -0.671875 L 4.265625 -0.125 C 4.347656 -0.28125 4.488281 -0.554688 4.6875 -0.953125 C 4.882812 -1.359375 5.140625 -1.898438 5.453125 -2.578125 C 5.773438 -3.253906 6.144531 -4.054688 6.5625 -4.984375 L 9.53125 -11.390625 C 9.957031 -12.328125 10.34375 -13.195312 10.6875 -14 C 11.039062 -14.800781 11.296875 -15.382812 11.453125 -15.75 L 9.65625 -17.078125 Z M 10.296875 -18.28125 "/></g></g></g><g clip-path="url(#8a8adf72e4)"><g clip-path="url(#753b400cc2)"><g clip-path="url(#bbcd0caac8)"><path fill="#ffffff" d="M 292.773438 132.40625 C 292.765625 129.882812 291.871094 127.363281 290.25 125.09375 C 288.410156 122.519531 286.425781 120.847656 284.132812 120.015625 C 281.839844 119.1875 279.238281 119.199219 276.171875 120.011719 C 275.285156 120.246094 274.410156 120.515625 273.53125 120.792969 C 272.65625 121.070312 271.78125 121.355469 270.910156 121.632812 C 263.574219 123.96875 256.664062 127.132812 250.019531 130.789062 C 243.375 134.445312 237 138.59375 230.742188 142.902344 C 225.988281 146.171875 221.152344 148.300781 216.136719 149.21875 C 211.121094 150.140625 205.925781 149.855469 200.453125 148.296875 C 192.03125 145.902344 183.625 143.445312 175.210938 141.011719 C 166.800781 138.582031 158.382812 136.167969 149.933594 133.859375 C 145.449219 132.632812 140.929688 131.527344 136.390625 130.5 C 131.847656 129.476562 127.289062 128.535156 122.726562 127.632812 C 121.238281 127.339844 119.527344 127.066406 117.972656 127.3125 C 116.421875 127.554688 115.027344 128.3125 114.1875 130.082031 C 113.328125 131.886719 113.644531 133.378906 114.476562 134.679688 C 115.308594 135.976562 116.648438 137.074219 117.835938 138.089844 C 120.394531 140.269531 122.980469 142.417969 125.597656 144.53125 C 128.210938 146.644531 130.855469 148.722656 133.523438 150.769531 C 138.332031 154.449219 143.203125 158.050781 148.0625 161.667969 C 152.917969 165.289062 157.761719 168.929688 162.507812 172.679688 C 165.910156 175.375 167.527344 178.023438 167.410156 180.640625 C 167.292969 183.261719 165.441406 185.851562 161.917969 188.417969 C 160.183594 189.679688 158.398438 190.867188 156.605469 192.050781 C 154.8125 193.234375 153.023438 194.417969 151.289062 195.675781 C 151.101562 195.816406 150.667969 196.242188 150.597656 196.851562 C 150.511719 197.578125 150.984375 198.40625 151.664062 198.671875 C 152.199219 198.882812 152.757812 198.738281 152.949219 198.617188 C 155.21875 197.167969 157.496094 195.714844 159.734375 194.214844 C 161.972656 192.710938 164.167969 191.15625 166.285156 189.5 C 167.144531 188.824219 167.902344 187.933594 168.550781 186.949219 C 169.191406 185.964844 169.726562 184.886719 170.132812 183.839844 C 171.3125 180.792969 171.121094 178.167969 170.0625 175.875 C 169.003906 173.578125 167.085938 171.613281 164.824219 169.878906 C 159.628906 165.894531 154.378906 161.988281 149.125 158.078125 C 143.875 154.171875 138.625 150.261719 133.4375 146.273438 C 130.648438 144.128906 127.9375 141.890625 125.246094 139.625 C 122.554688 137.355469 119.886719 135.058594 117.179688 132.808594 C 117.410156 132.269531 117.636719 131.726562 117.867188 131.1875 C 118.941406 131.222656 120.042969 131.167969 121.125 131.167969 C 122.210938 131.164062 123.285156 131.214844 124.308594 131.464844 C 129.609375 132.738281 134.898438 134.035156 140.1875 135.367188 C 145.472656 136.699219 150.75 138.0625 156.011719 139.472656 C 164.117188 141.636719 172.195312 143.902344 180.277344 146.136719 C 188.363281 148.375 196.453125 150.582031 204.585938 152.636719 C 208.84375 153.710938 213.042969 153.910156 217.105469 153.203125 C 221.171875 152.496094 225.101562 150.886719 228.828125 148.332031 C 230.195312 147.394531 231.59375 146.511719 233 145.640625 C 234.410156 144.769531 235.828125 143.910156 237.230469 143.027344 C 243.308594 139.195312 249.433594 135.464844 255.789062 132.1875 C 262.140625 128.914062 268.71875 126.097656 275.695312 124.097656 C 278.488281 123.296875 280.695312 123.148438 282.542969 123.722656 C 284.386719 124.296875 285.871094 125.589844 287.222656 127.664062 C 288.394531 129.476562 288.878906 131.425781 288.609375 133.417969 C 288.34375 135.40625 287.324219 137.433594 285.496094 139.390625 C 284.25 140.722656 282.914062 141.988281 281.523438 143.195312 C 280.132812 144.398438 278.683594 145.542969 277.210938 146.625 C 270.445312 151.601562 263.648438 156.53125 256.847656 161.460938 C 250.046875 166.390625 243.25 171.324219 236.488281 176.304688 C 232.4375 179.285156 229.585938 182.902344 227.671875 186.988281 C 225.757812 191.078125 224.785156 195.632812 224.492188 200.492188 C 223.894531 210.445312 223.359375 220.402344 222.800781 230.355469 C 222.238281 240.3125 221.65625 250.261719 220.964844 260.210938 C 220.78125 262.816406 220.34375 265.414062 219.785156 267.992188 C 219.226562 270.574219 218.542969 273.136719 217.867188 275.675781 C 217.675781 276.40625 217.140625 277.207031 216.480469 277.867188 C 215.820312 278.523438 215.035156 279.039062 214.332031 279.1875 C 213.859375 279.289062 213.183594 278.863281 212.523438 278.242188 C 211.863281 277.625 211.21875 276.816406 210.804688 276.152344 C 210.261719 275.285156 209.773438 274.347656 209.375 273.375 C 208.972656 272.402344 208.664062 271.394531 208.472656 270.394531 C 207.285156 264.152344 206.171875 257.898438 205.046875 251.648438 C 203.921875 245.394531 202.789062 239.144531 201.582031 232.910156 C 200.988281 229.859375 200.394531 226.785156 199.6875 223.75 C 198.980469 220.710938 198.160156 217.707031 197.109375 214.796875 C 196 211.710938 194.089844 209.671875 191.691406 208.6875 C 189.289062 207.703125 186.390625 207.777344 183.292969 208.910156 C 181.976562 209.394531 180.707031 210 179.445312 210.628906 C 178.183594 211.261719 176.929688 211.917969 175.65625 212.511719 C 170.511719 214.898438 165.320312 216.339844 160.042969 216.75 C 154.765625 217.160156 149.398438 216.546875 143.894531 214.824219 C 137.816406 212.917969 131.695312 211.148438 125.496094 209.726562 C 119.292969 208.296875 113.015625 207.214844 106.628906 206.683594 C 105.039062 206.550781 103.320312 206.3125 101.785156 206.523438 C 100.25 206.734375 98.894531 207.390625 98.03125 209.042969 C 97.125 210.765625 97.421875 212.261719 98.210938 213.613281 C 98.996094 214.960938 100.269531 216.167969 101.320312 217.316406 C 103.757812 219.984375 106.226562 222.625 108.714844 225.246094 C 111.203125 227.867188 113.710938 230.46875 116.230469 233.058594 C 119.152344 236.066406 121.410156 239.320312 122.867188 242.886719 C 124.320312 246.453125 124.96875 250.332031 124.660156 254.582031 C 124.296875 259.679688 126.066406 262.863281 128.839844 264.667969 C 131.613281 266.46875 135.386719 266.890625 139.03125 266.460938 C 140.921875 266.238281 142.378906 265.597656 143.351562 264.535156 C 144.328125 263.476562 144.820312 261.988281 144.796875 260.082031 C 144.765625 257.578125 144.652344 255.082031 144.492188 252.582031 C 144.332031 250.082031 144.121094 247.585938 143.898438 245.089844 C 143.773438 243.695312 143.609375 242.292969 143.375 240.90625 C 143.140625 239.515625 142.835938 238.148438 142.417969 236.820312 C 142.339844 236.570312 142.171875 236.355469 141.945312 236.15625 C 141.910156 236.125 141.574219 235.785156 141.140625 235.613281 C 140.34375 235.285156 139.144531 235.464844 138.496094 236.253906 C 138.035156 236.816406 138.03125 237.480469 138.007812 237.933594 C 137.972656 238.511719 138.144531 239.09375 138.339844 239.683594 C 138.539062 240.269531 138.769531 240.867188 138.855469 241.460938 C 139.269531 244.238281 139.734375 247.011719 140.144531 249.789062 C 140.558594 252.566406 140.917969 255.347656 141.117188 258.140625 C 141.269531 260.199219 140.949219 261.492188 140.078125 262.21875 C 139.207031 262.941406 137.777344 263.101562 135.707031 262.890625 C 132.875 262.605469 130.980469 262.058594 129.835938 260.871094 C 128.6875 259.683594 128.285156 257.855469 128.433594 255.007812 C 128.691406 249.996094 127.910156 245.460938 126.199219 241.308594 C 124.488281 237.15625 121.851562 233.386719 118.414062 229.902344 C 116.347656 227.808594 114.300781 225.699219 112.261719 223.578125 C 110.226562 221.457031 108.203125 219.320312 106.195312 217.175781 C 105.339844 216.261719 104.539062 215.304688 103.691406 214.265625 C 102.84375 213.226562 101.957031 212.109375 100.933594 210.875 C 101.769531 210.800781 102.390625 210.726562 102.902344 210.671875 C 103.414062 210.617188 103.816406 210.585938 104.21875 210.597656 C 110.734375 210.757812 117.105469 211.714844 123.375 213.128906 C 129.644531 214.542969 135.808594 216.417969 141.902344 218.402344 C 148.492188 220.546875 154.808594 221.21875 160.976562 220.59375 C 167.144531 219.972656 173.167969 218.050781 179.148438 215.003906 C 180.074219 214.53125 181.003906 214.054688 181.945312 213.609375 C 182.890625 213.164062 183.84375 212.753906 184.824219 212.417969 C 186.980469 211.6875 188.796875 211.613281 190.289062 212.246094 C 191.777344 212.882812 192.925781 214.222656 193.742188 216.328125 C 194.445312 218.140625 195.078125 220 195.613281 221.890625 C 196.148438 223.773438 196.589844 225.6875 196.910156 227.601562 C 197.804688 232.972656 198.527344 238.375 199.292969 243.765625 C 199.847656 247.695312 200.527344 251.753906 201.90625 259.875 C 201.90625 259.875 202.515625 263.472656 203.761719 268.585938 C 204.679688 272.359375 205.328125 274.386719 206.53125 276.640625 C 207.308594 278.097656 208.515625 280.003906 210.46875 281.519531 C 211.503906 282.328125 212.671875 282.917969 214.019531 283.191406 C 215.59375 283.511719 216.976562 283.027344 218.097656 282.101562 C 219.21875 281.175781 220.085938 279.8125 220.640625 278.375 C 221.257812 276.789062 221.796875 275.160156 222.257812 273.507812 C 222.722656 271.855469 223.113281 270.183594 223.425781 268.507812 C 225.308594 258.410156 226.21875 248.230469 226.734375 238.027344 C 227.242188 227.824219 227.359375 217.59375 227.640625 207.398438 C 227.832031 200.460938 228.984375 194.3125 231.558594 188.917969 C 234.132812 183.523438 238.121094 178.878906 243.996094 174.953125 C 249.753906 171.105469 255.429688 167.128906 261.054688 163.085938 C 266.679688 159.039062 272.257812 154.921875 277.820312 150.789062 C 280.011719 149.160156 282.171875 147.433594 284.222656 145.589844 C 286.273438 143.753906 288.21875 141.800781 289.976562 139.726562 C 291.910156 137.453125 292.789062 134.925781 292.78125 132.402344 Z M 292.773438 132.40625 " fill-opacity="1" fill-rule="nonzero"/></g></g></g><g clip-path="url(#5979613875)"><g clip-path="url(#ce6e9afed2)"><g clip-path="url(#15a31435d5)"><path fill="#ffffff" d="M 154.722656 356.527344 C 157.375 357.101562 160.039062 357.609375 162.71875 358.054688 C 165.394531 358.5 168.082031 358.878906 170.78125 359.191406 C 173.476562 359.507812 176.179688 359.753906 178.886719 359.9375 C 181.597656 360.121094 184.308594 360.238281 187.023438 360.292969 C 189.734375 360.34375 192.449219 360.328125 195.164062 360.25 C 197.878906 360.171875 200.585938 360.023438 203.292969 359.8125 C 206 359.601562 208.699219 359.324219 211.394531 358.984375 C 214.085938 358.640625 216.769531 358.234375 219.445312 357.761719 C 222.117188 357.292969 224.777344 356.753906 227.425781 356.152344 C 230.070312 355.554688 232.703125 354.890625 235.320312 354.160156 C 237.933594 353.433594 240.53125 352.640625 243.105469 351.785156 C 245.683594 350.933594 248.238281 350.015625 250.769531 349.039062 C 253.304688 348.058594 255.808594 347.019531 258.292969 345.921875 C 260.773438 344.820312 263.230469 343.664062 265.65625 342.445312 C 268.082031 341.226562 270.476562 339.949219 272.839844 338.613281 C 275.203125 337.277344 277.535156 335.886719 279.832031 334.441406 C 282.128906 332.992188 284.386719 331.492188 286.609375 329.933594 C 288.835938 328.375 291.019531 326.765625 293.164062 325.101562 C 295.3125 323.441406 297.414062 321.726562 299.476562 319.960938 C 301.539062 318.195312 303.558594 316.382812 305.535156 314.519531 C 307.507812 312.65625 309.4375 310.746094 311.320312 308.789062 C 313.203125 306.832031 315.035156 304.832031 316.820312 302.789062 C 318.605469 300.742188 320.339844 298.65625 322.023438 296.527344 C 323.707031 294.394531 325.339844 292.226562 326.917969 290.019531 C 328.496094 287.808594 330.023438 285.566406 331.492188 283.28125 C 332.960938 281 334.375 278.683594 335.734375 276.332031 C 337.089844 273.980469 338.390625 271.601562 339.632812 269.1875 C 340.875 266.773438 342.058594 264.328125 343.183594 261.859375 C 344.308594 259.386719 345.371094 256.890625 346.375 254.367188 C 347.375 251.84375 348.316406 249.300781 349.195312 246.730469 C 350.078125 244.164062 350.894531 241.574219 351.648438 238.964844 C 352.402344 236.359375 353.089844 233.734375 353.71875 231.09375 C 364.042969 188.039062 357.367188 143.507812 334.925781 105.71875 C 334.8125 105.550781 334.671875 105.414062 334.507812 105.300781 C 334.339844 105.1875 334.160156 105.109375 333.964844 105.066406 C 333.769531 105.023438 333.574219 105.015625 333.375 105.050781 C 333.179688 105.082031 332.992188 105.148438 332.820312 105.25 C 332.648438 105.351562 332.503906 105.484375 332.378906 105.640625 C 332.257812 105.800781 332.167969 105.976562 332.113281 106.167969 C 332.058594 106.359375 332.042969 106.554688 332.0625 106.753906 C 332.082031 106.953125 332.136719 107.144531 332.230469 107.320312 C 377.589844 183.710938 353.328125 284.40625 278.160156 331.789062 C 202.988281 379.171875 101.675781 357.625 52.324219 283.753906 C 52.203125 283.59375 52.054688 283.460938 51.882812 283.359375 C 51.714844 283.253906 51.527344 283.1875 51.332031 283.152344 C 51.132812 283.121094 50.9375 283.125 50.742188 283.164062 C 50.546875 283.207031 50.363281 283.285156 50.199219 283.394531 C 50.03125 283.507812 49.890625 283.644531 49.777344 283.808594 C 49.664062 283.972656 49.585938 284.152344 49.539062 284.347656 C 49.496094 284.542969 49.488281 284.738281 49.515625 284.9375 C 49.546875 285.136719 49.613281 285.320312 49.714844 285.492188 C 74.132812 322.046875 111.425781 347.269531 154.722656 356.527344 Z M 154.722656 356.527344 " fill-opacity="1" fill-rule="evenodd"/></g></g></g></svg>